<?xml version="1.0" encoding="UTF-8"?>
<svg version="1.1" xmlns="http://www.w3.org/2000/svg" width="740" height="730">
<path d="M0 0 C244.2 0 488.4 0 740 0 C740 240.9 740 481.8 740 730 C495.8 730 251.6 730 0 730 C0 489.1 0 248.2 0 0 Z " fill="#32452A" transform="translate(0,0)"/>
<path d="M0 0 C1.39447574 -0.05608523 2.78900373 -0.11089482 4.18359375 -0.1640625 C5.37339844 -0.22464844 6.56320312 -0.28523438 7.7890625 -0.34765625 C12.21772817 0.51002687 14.44456041 2.59548205 16.99609375 6.2734375 C17.82812128 9.12641775 17.81873151 11.8281264 17.77246094 14.78564453 C17.78297485 15.61890259 17.79348877 16.45216064 17.80432129 17.31066895 C17.8306267 20.05163619 17.8132885 22.79026123 17.79296875 25.53125 C17.79701234 27.44123784 17.80283699 29.35122266 17.81036377 31.26119995 C17.81919674 35.25760392 17.80639166 39.25320167 17.77832031 43.24951172 C17.74408774 48.37257895 17.76385359 53.49376355 17.7997551 58.61676216 C17.82142961 62.55795501 17.81454016 66.49870081 17.79898834 70.43990707 C17.79498625 72.32896015 17.79989643 74.21805382 17.81386566 76.10705948 C17.82910154 78.74580814 17.80589398 81.38149891 17.77246094 84.02001953 C17.78460632 84.80037567 17.79675171 85.58073181 17.80926514 86.38473511 C17.75799561 88.56790161 17.75799561 88.56790161 16.99609375 92.2734375 C14.06451416 94.67526245 14.06451416 94.67526245 10.99609375 96.2734375 C9.11477003 98.04749183 9.11477003 98.04749183 7.55859375 99.9609375 C6.97335937 100.65703125 6.388125 101.353125 5.78515625 102.0703125 C5.19476563 102.79734375 4.604375 103.524375 3.99609375 104.2734375 C3.40570313 105.00046875 2.8153125 105.7275 2.20703125 106.4765625 C0.43055798 108.7147623 -1.29385781 110.98417911 -3.00390625 113.2734375 C-3.54273438 113.97082031 -4.0815625 114.66820312 -4.63671875 115.38671875 C-8.46221555 120.64437389 -10.32061012 125.78072386 -11.94921875 132.0625 C-12.97172831 135.17547354 -14.40057327 137.66863762 -16.07226562 140.46972656 C-18.81474412 145.77932591 -19.16371287 152.39490799 -20.00390625 158.2734375 C-20.17277344 159.41167969 -20.34164062 160.54992187 -20.515625 161.72265625 C-22.78953356 182.38343829 -16.7871874 207.64456826 -3.75390625 224.1171875 C-3.17640625 224.82875 -2.59890625 225.5403125 -2.00390625 226.2734375 C-2.00390625 226.9334375 -2.00390625 227.5934375 -2.00390625 228.2734375 C-1.34390625 228.2734375 -0.68390625 228.2734375 -0.00390625 228.2734375 C3.99609375 232.74402574 3.99609375 232.74402574 3.99609375 235.2734375 C4.57359375 235.5415625 5.15109375 235.8096875 5.74609375 236.0859375 C8.05159418 237.30272939 10.01665567 238.57677629 11.99609375 240.2734375 C11.99609375 240.9334375 11.99609375 241.5934375 11.99609375 242.2734375 C12.94484375 242.5209375 13.89359375 242.7684375 14.87109375 243.0234375 C17.99609375 244.2734375 17.99609375 244.2734375 19.17400169 246.04172897 C20.10861805 248.57890384 20.25731273 250.52869598 20.27456665 253.23077393 C20.28573013 254.23023544 20.29689362 255.22969696 20.30839539 256.25944519 C20.31055557 257.35106461 20.31271576 258.44268402 20.31494141 259.56738281 C20.33000984 261.30067589 20.33000984 261.30067589 20.34538269 263.06898499 C20.37639766 266.91317256 20.3933363 270.75728863 20.41015625 274.6015625 C20.42783309 277.30256579 20.44839385 280.00354526 20.46884155 282.70452881 C20.5104178 288.39755601 20.54484476 294.09058867 20.57421875 299.78369141 C20.61486684 307.66082326 20.66770466 315.53783456 20.72344065 323.41487217 C20.81466599 336.35223365 20.88469667 349.28955125 20.93922806 362.22711945 C20.97020364 369.16128653 21.01856585 376.09483803 21.09297371 383.02867508 C21.13206331 386.81118179 21.16007893 390.59371473 21.1855278 394.37633514 C21.19964437 396.06281552 21.21896824 397.74926196 21.24400711 399.43561554 C21.27712596 401.69516464 21.29196473 403.95411666 21.30224609 406.21386719 C21.3222316 408.06223175 21.3222316 408.06223175 21.34262085 409.94793701 C20.80644965 415.09338616 19.27173008 418.06595078 15.52122498 421.61608887 C10.50636534 423.97383677 6.07222769 423.83243894 0.59399414 423.79101562 C-0.5465593 423.7980249 -1.68711273 423.80503418 -2.86222839 423.81225586 C-6.62715097 423.82984038 -10.39131995 423.81820979 -14.15625 423.8046875 C-16.77649581 423.80738244 -19.39674064 423.81126488 -22.01698303 423.81628418 C-27.50709164 423.82355219 -32.9969847 423.81399644 -38.48706055 423.79492188 C-44.82197359 423.7731653 -51.1563714 423.78019856 -57.49127191 423.8022275 C-63.59955701 423.82261327 -69.70761486 423.82039593 -75.81591988 423.80870056 C-78.40863683 423.80603462 -81.00136696 423.80929834 -83.59406853 423.81861877 C-87.22053561 423.82879371 -90.84601821 423.81326746 -94.47241211 423.79101562 C-95.54120605 423.79911255 -96.61 423.80720947 -97.71118164 423.81555176 C-104.00434151 423.74412807 -107.95546817 423.15346795 -113.00390625 419.2734375 C-117.24110542 414.73826309 -116.47810937 408.76481585 -116.51220703 402.90942383 C-116.53056579 401.74442824 -116.54892454 400.57943266 -116.56783962 399.37913418 C-116.61571157 396.14122826 -116.6502969 392.90349569 -116.67910314 389.6653738 C-116.71338526 386.15477156 -116.76422196 382.64440135 -116.81272888 379.13397217 C-116.90552381 372.21247113 -116.98173415 365.29087678 -117.05243307 358.36911857 C-117.11074502 352.70025089 -117.17604778 347.03150023 -117.24581909 341.36276245 C-118.00129159 279.84490534 -118.3849871 218.32365323 -118.6510309 156.80190408 C-118.68472483 149.06454174 -118.72044071 141.32718917 -118.7578125 133.58984375 C-118.7617649 132.76941503 -118.76571729 131.94898631 -118.76978946 131.10369611 C-118.88953618 106.63808085 -119.18227573 82.18662312 -119.88182068 57.72964478 C-120.08795669 50.40573765 -120.23903995 43.08039284 -120.39280701 35.75522804 C-120.42574477 34.242649 -120.46121395 32.73012334 -120.49897766 31.21765709 C-120.83316942 17.58714517 -120.83316942 17.58714517 -115.69165039 11.68261719 C-112.65204778 9.1447051 -109.88017064 8.04542352 -105.94262695 7.81860352 C-105.14739624 7.76826462 -104.35216553 7.71792572 -103.53283691 7.6660614 C-102.24427795 7.59739616 -102.24427795 7.59739616 -100.9296875 7.52734375 C-99.57236511 7.44387444 -99.57236511 7.44387444 -98.18762207 7.35871887 C-96.24180093 7.23949289 -94.29575251 7.12393088 -92.34951782 7.01165771 C-87.2538979 6.71644819 -82.16020592 6.39131208 -77.06640625 6.06640625 C-76.04553421 6.00173157 -75.02466217 5.93705688 -73.97285461 5.87042236 C-64.57451096 5.26564546 -55.19489606 4.50446127 -45.81640625 3.6484375 C-44.76436508 3.55491501 -44.76436508 3.55491501 -43.69107056 3.45950317 C-36.63936572 3.18920334 -36.63936572 3.18920334 -30.00390625 1.2734375 C-28.30705673 1.11982604 -26.6048243 1.02377506 -24.90234375 0.95703125 C-23.34157104 0.89334351 -23.34157104 0.89334351 -21.74926758 0.82836914 C-17.21867923 0.67051235 -12.68799681 0.51920627 -8.15673828 0.38183594 C-5.43444515 0.28823998 -2.71932704 0.154488 0 0 Z " fill="#506835" transform="translate(290.00390625,257.7265625)"/>
<path d="M0 0 C1.64935547 -0.00386719 1.64935547 -0.00386719 3.33203125 -0.0078125 C6.1875 0.125 6.1875 0.125 9.1875 1.125 C9.1875 1.785 9.1875 2.445 9.1875 3.125 C9.88875 3.310625 10.59 3.49625 11.3125 3.6875 C16.0829369 6.07271845 19.26776689 9.82757363 21.24755859 14.77294922 C22.29252496 18.49954355 22.52851633 21.96601783 22.55859375 25.8046875 C22.56762222 26.53511261 22.5766507 27.26553772 22.58595276 28.01809692 C22.60040685 29.56280462 22.60932992 31.10757287 22.61303711 32.65234375 C22.62479342 34.95946014 22.67389712 37.26377074 22.72460938 39.5703125 C22.89435577 55.09487422 18.89950429 68.10246331 10.1875 81.125 C9.58035156 82.04796875 8.97320313 82.9709375 8.34765625 83.921875 C2.8068281 91.94417833 -3.84731145 99.83299543 -12.0234375 105.25390625 C-15.00103205 106.99403638 -15.00103205 106.99403638 -16.8125 110.125 C-19.9375 110.8125 -19.9375 110.8125 -22.8125 111.125 C-22.8125 111.785 -22.8125 112.445 -22.8125 113.125 C-23.69292969 113.52332031 -24.57335937 113.92164063 -25.48046875 114.33203125 C-26.64191406 114.86183594 -27.80335938 115.39164062 -29 115.9375 C-30.14855469 116.45957031 -31.29710937 116.98164063 -32.48046875 117.51953125 C-35.70305272 118.9842384 -35.70305272 118.9842384 -38.08203125 120.60546875 C-53.55149371 129.21436846 -74.30792664 132.17861632 -91.8125 132.125 C-91.81065641 133.17983928 -91.80881283 134.23467855 -91.80691338 135.32148266 C-91.76245955 161.02090912 -91.72962251 186.72033058 -91.70887566 212.41978741 C-91.69857526 224.84798743 -91.68453857 237.27616201 -91.66162109 249.7043457 C-91.64164936 260.54023993 -91.62877458 271.37611573 -91.62432301 282.21202785 C-91.62172204 287.94635953 -91.61563441 293.68063849 -91.60103989 299.41495323 C-91.58739618 304.81982211 -91.58329102 310.22461688 -91.58628464 315.62950134 C-91.5857375 317.60587785 -91.58180073 319.58225701 -91.57408905 321.55861855 C-91.53552552 331.95781581 -91.74303677 341.89216594 -93.8125 352.125 C-94.4725 352.125 -95.1325 352.125 -95.8125 352.125 C-95.833125 353.383125 -95.85375 354.64125 -95.875 355.9375 C-96.82742798 364.59098852 -103.24409055 371.59987961 -108.41796875 378.2890625 C-109.76922857 380.068032 -111.00649126 381.89486319 -112.25 383.75 C-115.96610872 388.97167045 -120.60261686 393.22753571 -126.8125 395.125 C-127.8025 395.455 -128.7925 395.785 -129.8125 396.125 C-129.8125 396.785 -129.8125 397.445 -129.8125 398.125 C-135.20729129 403.39990704 -141.13447948 406.70151412 -147.8125 410.125 C-148.72902344 410.63160156 -149.64554688 411.13820313 -150.58984375 411.66015625 C-157.12442578 415.16498694 -163.63377021 417.46633899 -170.76220703 419.38891602 C-174.10911181 420.29492527 -177.13008114 421.26469326 -180.3203125 422.66796875 C-184.179985 424.27832428 -187.76897779 425.08120353 -191.875 425.75 C-192.62612061 425.87479736 -193.37724121 425.99959473 -194.15112305 426.12817383 C-201.02869265 427.22738874 -207.8467926 427.93876658 -214.8125 428.125 C-215.82844238 428.15223145 -216.84438477 428.17946289 -217.89111328 428.20751953 C-231.87535125 428.5216167 -245.21696697 428.64700417 -258.8125 425.125 C-260.19629036 424.79551035 -261.58041644 424.46742802 -262.96484375 424.140625 C-273.67228909 421.51244529 -273.67228909 421.51244529 -277.8125 418.125 C-280.12898799 417.08657435 -282.46153024 416.0828025 -284.8125 415.125 C-285.4725 414.795 -286.1325 414.465 -286.8125 414.125 C-286.8125 413.465 -286.8125 412.805 -286.8125 412.125 C-287.59625 411.815625 -288.38 411.50625 -289.1875 411.1875 C-291.8125 410.125 -291.8125 410.125 -293.8125 409.125 C-293.8125 408.465 -293.8125 407.805 -293.8125 407.125 C-294.36679687 406.92777344 -294.92109375 406.73054688 -295.4921875 406.52734375 C-298.76123396 404.55160692 -300.70806661 401.71410467 -302.9375 398.6875 C-303.60072266 397.80868164 -303.60072266 397.80868164 -304.27734375 396.91210938 C-307.77346374 392.25941797 -310.18352486 388.38857966 -311.875 382.8125 C-312.21660156 381.70261719 -312.55820312 380.59273438 -312.91015625 379.44921875 C-316.07458453 367.79151976 -316.61810757 353.43360865 -311.8125 342.125 C-311.1525 341.465 -310.4925 340.805 -309.8125 340.125 C-309.00817752 338.14156604 -308.35668535 336.1315095 -307.69140625 334.09765625 C-306.71526947 331.90677148 -305.53480495 330.76529043 -303.8125 329.125 C-303.420625 328.279375 -303.02875 327.43375 -302.625 326.5625 C-293.97251125 310.15260754 -277.50342848 298.23456717 -261.8125 289.125 C-260.94882812 288.58101563 -260.08515625 288.03703125 -259.1953125 287.4765625 C-249.63665146 281.46040843 -240.0358811 277.60524908 -228.8125 276.125 C-228.8125 275.465 -228.8125 274.805 -228.8125 274.125 C-228.09964844 274.00382812 -227.38679688 273.88265625 -226.65234375 273.7578125 C-221.2581947 272.81401791 -216.07103646 271.67162837 -210.8125 270.125 C-205.78410168 269.03186993 -200.93028586 269.02264428 -195.8125 269.125 C-195.8125 268.465 -195.8125 267.805 -195.8125 267.125 C-175.605968 266.6442003 -157.96407093 266.7961642 -138.8125 274.125 C-138.8125 274.785 -138.8125 275.445 -138.8125 276.125 C-137.8225 276.125 -136.8325 276.125 -135.8125 276.125 C-135.81388269 274.17827188 -135.81388269 274.17827188 -135.81529331 272.19221592 C-135.83692937 241.41685626 -135.85342958 210.64149865 -135.86356533 179.86613322 C-135.86481611 176.0820608 -135.86611042 172.29798841 -135.86743164 168.51391602 C-135.86782511 167.3838571 -135.86782511 167.3838571 -135.86822652 166.23096871 C-135.87258336 154.01637331 -135.88047098 141.80178259 -135.8896528 129.58718998 C-135.89898895 117.06325801 -135.90455553 104.5393285 -135.90658849 92.0153932 C-135.9079638 84.28121148 -135.91231481 76.54704301 -135.92041647 68.81286537 C-135.92630414 62.89233277 -135.92695906 56.97180705 -135.92560768 51.05127144 C-135.92588421 48.61511656 -135.92789193 46.17896121 -135.93170547 43.7428093 C-135.93663583 40.43257028 -135.93550073 37.12238923 -135.93275452 33.81214905 C-135.93712378 32.34573985 -135.93712378 32.34573985 -135.94158131 30.84970623 C-135.93959026 29.9698995 -135.93759921 29.09009277 -135.93554783 28.18362522 C-135.93592755 27.41848876 -135.93630727 26.65335229 -135.9366985 25.86502987 C-135.8125 24.125 -135.8125 24.125 -134.8125 23.125 C-133.37040055 22.87525093 -131.91856011 22.68123033 -130.46484375 22.51171875 C-129.55831055 22.40029541 -128.65177734 22.28887207 -127.71777344 22.17407227 C-126.7384082 22.05475342 -125.75904297 21.93543457 -124.75 21.8125 C-118.0545054 20.95439186 -111.57757434 19.9611644 -105.0625 18.1875 C-94.86291218 15.44668768 -84.44055863 14.1098942 -74.00195312 12.59082031 C-69.24761613 11.89644838 -64.49809834 11.17317265 -59.75 10.4375 C-58.95295654 10.31818115 -58.15591309 10.1988623 -57.3347168 10.07592773 C-53.7723645 9.79415979 -53.7723645 9.79415979 -50.8125 8.125 C-47.79342946 7.65147945 -44.77796527 7.22098235 -41.75 6.8125 C-33.79076177 5.69033581 -26.13841925 4.11870975 -18.390625 1.9921875 C-12.283516 0.5120803 -6.29105985 -0.01492541 0 0 Z " fill="#E1EAC1" transform="translate(614.8125,55.875)"/>
<path d="M0 0 C0 126.06 0 252.12 0 382 C-1.98 382.66 -3.96 383.32 -6 384 C-8.04627521 385.19751679 -8.04627521 385.19751679 -9.9375 386.625 C-14.72419858 389.95273908 -19.77191024 392.62163078 -24.94702148 395.28369141 C-27.62503558 396.67295656 -29.85240156 397.85240156 -32 400 C-33.69380383 400.75417543 -35.39021343 401.50356139 -37.10449219 402.20996094 C-39.99250603 403.41367201 -42.80012127 404.78074736 -45.625 406.125 C-51.99025761 409.11983649 -58.41549047 411.96468596 -64.875 414.75 C-65.74205566 415.12656738 -66.60911133 415.50313477 -67.50244141 415.89111328 C-72.30487607 417.94824954 -77.09677242 419.76942869 -82.09423828 421.29785156 C-84.28222326 422.01998422 -84.28222326 422.01998422 -87 424 C-88.63084046 424.50911315 -90.27990691 424.96121024 -91.9375 425.375 C-95.74588654 426.37149492 -99.46782024 427.46241854 -103.1875 428.75 C-111.36585759 431.52936371 -119.67817685 433.85899451 -127.9765625 436.25 C-131.69053289 437.32154097 -135.39359903 438.41868577 -139.0859375 439.5625 C-139.84946533 439.79654541 -140.61299316 440.03059082 -141.3996582 440.27172852 C-142.78864622 440.69929035 -144.17544415 441.13407079 -145.55932617 441.57788086 C-149.83081354 442.88165693 -153.55803939 443.07179929 -158 443 C-158.13942317 433.37679778 -158.24583404 423.75394671 -158.31087303 414.12995243 C-158.34209918 409.66040772 -158.38441019 405.1915573 -158.45263672 400.72241211 C-158.51814382 396.40405456 -158.55377151 392.08636201 -158.56926346 387.7675457 C-158.580294 386.12534564 -158.60183429 384.4831793 -158.63438034 382.84126472 C-158.81326801 373.43694536 -158.66795987 366.30097248 -152 359 C-150.82244141 357.43958984 -150.82244141 357.43958984 -149.62109375 355.84765625 C-148.90050781 354.92855469 -148.17992187 354.00945312 -147.4375 353.0625 C-143.5535288 347.91851139 -140.6521345 342.85055583 -138 337 C-137.51917969 336.0615625 -137.03835938 335.123125 -136.54296875 334.15625 C-128.56948652 318.16891348 -126.25103979 302.26595426 -126.34057617 284.57543945 C-126.33209773 282.61206047 -126.32144221 280.64868989 -126.30880737 278.68533325 C-126.28095666 273.4199773 -126.28307964 268.15503281 -126.29110122 262.88962579 C-126.29425143 257.36297778 -126.2691189 251.83645516 -126.24714661 246.30986023 C-126.20986924 235.87338402 -126.19756831 225.43703806 -126.1945222 215.00050181 C-126.18981358 203.10663402 -126.15683268 191.21289527 -126.12162435 179.31908476 C-126.04990318 154.87940543 -126.0132073 130.43977614 -126 106 C-125.43832626 105.92123123 -124.87665253 105.84246246 -124.29795837 105.76130676 C-121.70692333 105.39466703 -119.11716457 105.01964803 -116.52734375 104.64453125 C-115.64413452 104.52082153 -114.76092529 104.39711182 -113.85095215 104.26965332 C-101.75176332 102.50141744 -90.77808394 98.67414574 -79.77734375 93.34375 C-77.53785988 92.26023038 -75.31075141 91.28936185 -73 90.375 C-69.84719336 88.92996362 -67.68850903 87.17641207 -65 85 C-63.67231578 84.32215278 -62.33816387 83.65691681 -61 83 C-55.76161826 80.20913107 -51.74164719 76.29495183 -47.51757812 72.18945312 C-43.36673091 68.18051521 -43.36673091 68.18051521 -40.73828125 66.88671875 C-38.39832369 65.69307748 -38.04097272 64.37255033 -37 62 C-36.03180993 60.58191725 -35.03065794 59.1858517 -34 57.8125 C-33.484375 57.11769531 -32.96875 56.42289063 -32.4375 55.70703125 C-31 54 -31 54 -29 53 C-26.77277663 49.45995582 -24.90905969 45.71913109 -23 42 C-22.55011719 41.13761719 -22.10023438 40.27523437 -21.63671875 39.38671875 C-17.81200943 31.58336444 -15.89030587 23.42530466 -14 15 C-13.43821838 12.52067045 -12.87578288 10.04148891 -12.3125 7.5625 C-12.08175781 6.51191406 -11.85101562 5.46132812 -11.61328125 4.37890625 C-11 2 -11 2 -10 1 C-6.62658866 0.43776478 -3.42229689 0 0 0 Z " fill="#90A040" transform="translate(680,112)"/>
<path d="M0 0 C0 3 0 3 -2 6 C-2.21219657 8.4445394 -2.31119521 10.77918035 -2.31884766 13.2253418 C-2.32889328 13.95729767 -2.3389389 14.68925354 -2.34928894 15.44338989 C-2.38017185 17.86199155 -2.39717004 20.28048225 -2.4140625 22.69921875 C-2.43277006 24.37645933 -2.45234317 26.05369046 -2.4727478 27.73091125 C-2.52411859 32.14493238 -2.56371777 36.55898405 -2.60089111 40.97314453 C-2.6408998 45.4776162 -2.69200642 49.98196033 -2.7421875 54.48632812 C-2.83900532 63.32412922 -2.92339133 72.16200225 -3 81 C2.8004523 79.89850708 8.49048536 78.67926901 14.16015625 77.01171875 C14.78864471 76.82818344 15.41713318 76.64464813 16.06466675 76.45555115 C18.06517519 75.8703021 20.06386365 75.27910719 22.0625 74.6875 C23.44919925 74.28009268 24.8360001 73.873031 26.22290039 73.46630859 C28.93210618 72.67122404 31.64062998 71.87387861 34.34863281 71.07470703 C37.40451336 70.1752696 40.46257554 69.28463341 43.5234375 68.40234375 C44.29034912 68.1803833 45.05726074 67.95842285 45.84741211 67.72973633 C47.76137235 67.17595996 49.67559486 66.62309025 51.58984375 66.0703125 C54.85033168 65.04697494 58.02854092 63.90288544 61.2175293 62.67919922 C64.4770141 61.43719309 67.76924703 60.3330008 71.13671875 59.421875 C78.48285468 57.38719645 85.1368562 54.28410598 92 51 C94.20666654 49.97556864 96.41498352 48.95468433 98.625 47.9375 C99.69363281 47.44378906 100.76226563 46.95007813 101.86328125 46.44140625 C104.84075209 45.07317868 107.82548992 43.72224455 110.8125 42.375 C116.6375666 39.72417259 122.36359475 37.09795944 127.75 33.625 C131.09486206 31.47000982 134.54043649 29.72590095 138.125 28 C141.60301874 26.30917477 144.62035394 24.7122962 147.5 22.125 C150 20 150 20 154 20 C154.07007235 42.84390346 154.1229795 65.68778921 154.15543652 88.53177834 C154.17090724 99.13857236 154.19200074 109.74529961 154.22631836 120.35205078 C154.25621436 129.59659061 154.27557351 138.84108209 154.28226548 148.08566892 C154.28617739 152.98088591 154.29537527 157.87596457 154.31719017 162.77113724 C154.33755844 167.37904296 154.34383309 171.9867534 154.33932304 176.59469986 C154.34014809 178.28537558 154.34611173 179.97605786 154.35761642 181.66669464 C154.3725661 183.97697974 154.36894493 186.28652978 154.36076355 188.59683228 C154.36352893 189.88918604 154.36629431 191.1815398 154.36914349 192.5130558 C153.87907303 197.14228104 152.54901419 200.60089041 149.0625 203.75 C144.96098083 206.23576919 142.27977322 207.25091721 137.40299988 207.26742554 C136.26329239 207.27595551 135.1235849 207.28448547 133.94934082 207.29327393 C132.07985779 207.29191437 132.07985779 207.29191437 130.17260742 207.29052734 C128.85678177 207.29724457 127.54095612 207.30396179 126.18525696 207.31088257 C122.57768224 207.32854375 118.97020241 207.33323804 115.36258864 207.33451414 C113.10715166 207.33593644 110.85173875 207.34020756 108.59630775 207.34550858 C100.72328792 207.3640105 92.85033578 207.37217914 84.97729492 207.37060547 C77.64613916 207.36940459 70.31527806 207.39049574 62.98419684 207.4220928 C56.68425719 207.44827497 50.38441365 207.45897193 44.08442003 207.45769465 C40.32433959 207.4571855 36.56452095 207.4628418 32.80449486 207.48405075 C29.26589136 207.50346571 25.72779844 207.50353594 22.18917656 207.48901749 C20.27850741 207.48594117 18.36783805 207.50258386 16.45724487 207.51989746 C9.78764625 207.47116665 5.29941199 207.22640632 0 203 C-2.88884181 199.39956703 -3.38314288 196.65389456 -3.43237305 192.09716797 C-3.45214203 190.90284653 -3.47191101 189.70852509 -3.49227905 188.47801208 C-3.49869415 187.16268997 -3.50510925 185.84736786 -3.51171875 184.4921875 C-3.52894447 183.06481026 -3.54734297 181.63744679 -3.56680298 180.21009827 C-3.61613863 176.26453883 -3.64564128 172.31905266 -3.67056656 168.37327194 C-3.68751247 165.87316088 -3.70918082 163.37313653 -3.73251343 160.87307739 C-3.82867808 150.54435204 -3.89659288 140.2156586 -3.94815731 129.88661861 C-3.98325721 122.91071802 -4.02591515 115.93490277 -4.0728693 108.95907211 C-4.16951031 94.56433678 -4.23836429 80.16970483 -4.28408813 65.77471924 C-4.30119718 60.54462385 -4.32695197 55.31467594 -4.35971069 50.08465576 C-4.39782576 43.85831242 -4.41598749 37.6322159 -4.41913986 31.40575981 C-4.42353465 29.08745421 -4.43481527 26.76915048 -4.45329666 24.45091438 C-4.47748995 21.2624768 -4.47686541 18.07497479 -4.4699707 14.88647461 C-4.48278422 13.9514958 -4.49559774 13.01651699 -4.50879955 12.05320549 C-4.4739229 7.7277265 -4.38592256 5.59292681 -1.97062683 1.88209534 C-1.32031998 1.26100388 -0.67001312 0.63991241 0 0 Z " fill="#576E34" transform="translate(525,474)"/>
<path d="M0 0 C0.0934359 21.9311975 0.1639756 43.86236219 0.20724869 65.79371834 C0.22787507 75.97680438 0.25599719 86.15976676 0.30175781 96.34277344 C0.34162317 105.21814967 0.36743226 114.09343633 0.37635398 122.96889961 C0.38156923 127.66854875 0.3938286 132.36794167 0.42292023 137.0675087 C0.45008455 141.49160449 0.45844295 145.91533869 0.45243073 150.33950996 C0.45353051 151.96246748 0.46147847 153.58543717 0.4768219 155.20832253 C0.49676666 157.42685053 0.49192408 159.64401893 0.48101807 161.86257935 C0.48470524 163.1033127 0.48839241 164.34404606 0.49219131 165.6223774 C-0.2391483 170.64113566 -3.03487851 174.82790281 -7 178 C-10.46758531 179.61118571 -13.21449267 180.25342095 -17.0271759 180.27415466 C-18.01535812 180.28412979 -19.00354034 180.29410492 -20.02166748 180.30438232 C-21.09450989 180.305047 -22.16735229 180.30571167 -23.27270508 180.30639648 C-24.98090675 180.31888176 -24.98090675 180.31888176 -26.72361755 180.33161926 C-30.48895688 180.35571809 -34.25412297 180.36449136 -38.01953125 180.37109375 C-40.63880973 180.3800601 -43.25808769 180.38918194 -45.87736511 180.39845276 C-51.36917771 180.41580568 -56.86094622 180.42267628 -62.3527832 180.42553711 C-68.68712264 180.4291702 -75.02097692 180.45905359 -81.35516816 180.50094169 C-87.46288356 180.5399065 -93.57036408 180.55113141 -99.67819786 180.55226326 C-102.27011432 180.55646633 -104.86203117 180.56890396 -107.45386696 180.58978081 C-111.0827095 180.61668387 -114.71021945 180.61187133 -118.33911133 180.59936523 C-119.9392659 180.62161667 -119.9392659 180.62161667 -121.57174683 180.64431763 C-128.10311818 180.58033278 -133.13679259 179.63497265 -138 175 C-140.50070194 170.95872544 -140.34850507 166.92299613 -140.41186523 162.29467773 C-140.43110865 161.41020777 -140.45035206 160.5257378 -140.4701786 159.61446571 C-140.5308882 156.65843954 -140.57653092 153.70240465 -140.62109375 150.74609375 C-140.65900786 148.64342378 -140.69713394 146.54075762 -140.73545837 144.43809509 C-141.14880931 120.17219251 -141.11522751 95.90372465 -141.06866455 71.63519287 C-141.05816774 65.55172088 -141.05381242 59.46824418 -141.04882812 53.38476562 C-141.03831534 41.58983216 -141.0214055 29.79491841 -141 18 C-140.33922958 18.11888077 -139.67845917 18.23776154 -138.99766541 18.36024475 C-125.10682083 20.82163066 -111.6750952 22.67378274 -97.5625 22.4375 C-96.79494385 22.4310144 -96.0273877 22.42452881 -95.23657227 22.41784668 C-84.68271589 22.32666748 -74.38948922 21.86734225 -64.07666016 19.47509766 C-60.8367934 18.73388196 -57.57548839 18.10446874 -54.31542969 17.45898438 C-52.59253267 17.117094 -50.87048471 16.77089049 -49.14941406 16.41992188 C-42.46016589 15.05822938 -35.76302786 13.93793817 -29 13 C-29 12.34 -29 11.68 -29 11 C-28.28714844 10.74605469 -27.57429688 10.49210937 -26.83984375 10.23046875 C-20.38032919 7.91713684 -20.38032919 7.91713684 -14.0625 5.25 C-11 4 -11 4 -7 4 C-7 3.34 -7 2.68 -7 2 C-4.35261084 0.5393715 -3.10551666 0 0 0 Z " fill="#74873A" transform="translate(487,501)"/>
<path d="M0 0 C0.79921875 0.00902344 1.5984375 0.01804688 2.421875 0.02734375 C3.02515625 0.03894531 3.6284375 0.05054688 4.25 0.0625 C4.27332804 18.42934381 4.29097871 36.7961838 4.30181217 55.16303921 C4.30697533 63.69048494 4.31401841 72.21792149 4.32543945 80.74536133 C4.33538568 88.17516255 4.34185328 95.60495713 4.34408849 103.03476483 C4.34539571 106.9712332 4.34848221 110.90768253 4.35573006 114.84414482 C4.36248931 118.54503327 4.36461716 122.24589475 4.36310768 125.94678879 C4.36351638 127.96120802 4.36891207 129.97562427 4.37442017 131.99003601 C4.3730455 133.1778064 4.37167084 134.36557678 4.37025452 135.58934021 C4.37117631 136.6282009 4.3720981 137.6670616 4.37304783 138.73740292 C4.25 141.0625 4.25 141.0625 3.25 142.0625 C0.65426476 142.07945563 -1.91136918 142.0335781 -4.50390625 141.94140625 C-5.27935287 141.91779526 -6.0547995 141.89418427 -6.85374451 141.86985779 C-9.34017435 141.7930411 -11.82630669 141.709095 -14.3125 141.625 C-15.99412587 141.5717973 -17.67576644 141.5190568 -19.35742188 141.46679688 C-23.48847106 141.33740179 -27.61926702 141.2016106 -31.75 141.0625 C-31.75 141.7225 -31.75 142.3825 -31.75 143.0625 C-35.82078576 143.88166616 -39.89184184 144.69947243 -43.96313477 145.51611328 C-45.34308945 145.79309919 -46.72297444 146.07043263 -48.1027832 146.34814453 C-55.52625998 147.842008 -62.95080019 149.31345128 -70.40698242 150.63720703 C-72.86108349 151.08266333 -75.30561313 151.56672632 -77.75 152.0625 C-77.75 152.7225 -77.75 153.3825 -77.75 154.0625 C-78.28367187 154.29324219 -78.81734375 154.52398437 -79.3671875 154.76171875 C-84.46078607 156.99126968 -89.44356326 159.37586416 -94.390625 161.9140625 C-98.71727298 164.02007989 -103.1788206 165.57420903 -107.75 167.0625 C-107.75 167.7225 -107.75 168.3825 -107.75 169.0625 C-110.39738916 170.5231285 -111.64448334 171.0625 -114.75 171.0625 C-114.76030746 170.12322662 -114.77061493 169.18395325 -114.78123474 168.21621704 C-114.88068952 159.19105552 -114.98352174 150.16593738 -115.08933926 141.14084816 C-115.14358946 136.5053733 -115.19680703 131.86989228 -115.24731445 127.234375 C-115.46541855 107.28627029 -115.77314688 87.35015213 -116.40263367 67.41049194 C-116.70725524 57.75594179 -116.96358679 48.10603814 -116.99023438 38.44628906 C-116.99697444 36.97358477 -117.01110352 35.50090222 -117.03125 34.02832031 C-117.06157421 31.79475263 -117.0722312 29.56187453 -117.078125 27.328125 C-117.0874707 26.06774414 -117.09681641 24.80736328 -117.10644531 23.50878906 C-116.64042291 19.00305469 -115.13013494 15.73016305 -112.25 12.25 C-109.50311845 10.07538544 -106.73688473 9.91408693 -103.37109375 9.78125 C-102.53255859 9.74386719 -101.69402344 9.70648438 -100.83007812 9.66796875 C-99.06445933 9.59750059 -97.29883429 9.52718878 -95.53320312 9.45703125 C-94.69595703 9.41964844 -93.85871094 9.38226563 -92.99609375 9.34375 C-92.22966553 9.31345703 -91.4632373 9.28316406 -90.67358398 9.25195312 C-88.66725487 9.170041 -88.66725487 9.170041 -86.75 8.0625 C-84.32741285 7.82319566 -81.92868221 7.63791607 -79.5 7.5 C-78.79359375 7.4575415 -78.0871875 7.41508301 -77.359375 7.37133789 C-70.48630268 6.99009716 -63.63307816 6.96570671 -56.75 7.0625 C-56.75 6.4025 -56.75 5.7425 -56.75 5.0625 C-52.32517608 4.65109548 -47.90011996 4.24230356 -43.47485352 3.83569336 C-41.97674407 3.69769908 -40.47869459 3.55905185 -38.98071289 3.41967773 C-29.92840089 2.57795554 -20.8862808 1.8365846 -11.80883789 1.32397461 C-8.91803635 1.16825402 -8.91803635 1.16825402 -6.85569763 0.55006409 C-4.50331899 0.00538221 -2.41129504 -0.03546022 0 0 Z " fill="#73893A" transform="translate(449.75,154.9375)"/>
<path d="M0 0 C0.99 0 1.98 0 3 0 C3.0934359 21.9311975 3.1639756 43.86236219 3.20724869 65.79371834 C3.22787507 75.97680438 3.25599719 86.15976676 3.30175781 96.34277344 C3.34162317 105.21814967 3.36743226 114.09343633 3.37635398 122.96889961 C3.38156923 127.66854875 3.3938286 132.36794167 3.42292023 137.0675087 C3.45008455 141.49160449 3.45844295 145.91533869 3.45243073 150.33950996 C3.45353051 151.96246748 3.46147847 153.58543717 3.4768219 155.20832253 C3.49676666 157.42685053 3.49192408 159.64401893 3.48101807 161.86257935 C3.48470524 163.1033127 3.48839241 164.34404606 3.49219131 165.6223774 C2.7608517 170.64113566 -0.03487851 174.82790281 -4 178 C-7.46758531 179.61118571 -10.21449267 180.25342095 -14.0271759 180.27415466 C-15.01535812 180.28412979 -16.00354034 180.29410492 -17.02166748 180.30438232 C-18.09450989 180.305047 -19.16735229 180.30571167 -20.27270508 180.30639648 C-21.98090675 180.31888176 -21.98090675 180.31888176 -23.72361755 180.33161926 C-27.48895688 180.35571809 -31.25412297 180.36449136 -35.01953125 180.37109375 C-37.63880973 180.3800601 -40.25808769 180.38918194 -42.87736511 180.39845276 C-48.36917771 180.41580568 -53.86094622 180.42267628 -59.3527832 180.42553711 C-65.68712264 180.4291702 -72.02097692 180.45905359 -78.35516816 180.50094169 C-84.46288356 180.5399065 -90.57036408 180.55113141 -96.67819786 180.55226326 C-99.27011432 180.55646633 -101.86203117 180.56890396 -104.45386696 180.58978081 C-108.0827095 180.61668387 -111.71021945 180.61187133 -115.33911133 180.59936523 C-116.9392659 180.62161667 -116.9392659 180.62161667 -118.57174683 180.64431763 C-125.10311818 180.58033278 -130.13679259 179.63497265 -135 175 C-137.0418874 171.58715418 -137.26876061 169.01165824 -137.31884766 165.03808594 C-137.33871735 163.83714294 -137.35858704 162.63619995 -137.37905884 161.39886475 C-137.39061005 160.10708313 -137.40216125 158.81530151 -137.4140625 157.484375 C-137.43277987 156.14486505 -137.45235371 154.80536682 -137.4727478 153.46588135 C-137.52401524 149.94786497 -137.56366952 146.42981038 -137.60089111 142.91162109 C-137.64096474 139.31858918 -137.69204171 135.72571546 -137.7421875 132.1328125 C-137.83888278 125.08865758 -137.9233079 118.0444034 -138 111 C-137.67 111 -137.34 111 -137 111 C-137 114.96 -137 118.92 -137 123 C-128.06392879 122.61565285 -119.80476269 121.51850384 -111.10229492 119.54785156 C-106.83004553 118.58138342 -102.57978376 117.75975098 -98.25 117.08984375 C-91.57848438 116.00658493 -85.13357509 114.30249067 -78.625 112.5 C-77.48933594 112.19191406 -76.35367188 111.88382813 -75.18359375 111.56640625 C-70.07032577 110.16969882 -65.02164292 108.70007881 -60 107 C-58.35661846 106.49199952 -56.71087012 105.99157229 -55.0625 105.5 C-54.26972656 105.2628125 -53.47695313 105.025625 -52.66015625 104.78125 C-50.64703062 104.19002368 -48.62923456 103.61466962 -46.609375 103.046875 C-43.10207912 102.02960737 -39.64822069 100.91522582 -36.1875 99.75 C-35.55223389 99.53819092 -34.91696777 99.32638184 -34.26245117 99.1081543 C-30.64745236 97.90111602 -27.04275327 96.66857369 -23.4453125 95.41015625 C-22.67421143 95.14428711 -21.90311035 94.87841797 -21.10864258 94.60449219 C-19.63441832 94.09599846 -18.16263943 93.58032669 -16.6940918 93.05566406 C-10.36946674 90.88872513 -4.86020458 90.14336743 2 89 C2 59.96 2 30.92 2 1 C1.01 0.505 1.01 0.505 0 0 Z " fill="#556C33" transform="translate(484,501)"/>
<path d="M0 0 C0.66 0 1.32 0 2 0 C2.10957031 0.67804688 2.21914062 1.35609375 2.33203125 2.0546875 C5.30570668 19.50992054 11.25003363 37.04685786 26 48 C29.59109275 49.77772457 33.10833801 51.05907592 37 52 C37 52.66 37 53.32 37 54 C38.3303125 54.185625 38.3303125 54.185625 39.6875 54.375 C43 55 43 55 45.34375 55.96875 C48.17074173 57.06628797 50.82558601 57.62118318 53.8125 58.125 C54.78832031 58.29257813 55.76414062 58.46015625 56.76953125 58.6328125 C57.87361328 58.81457031 57.87361328 58.81457031 59 59 C59 59.99 59 60.98 59 62 C55.37 62.33 51.74 62.66 48 63 C48 63.66 48 64.32 48 65 C47.32195312 65.15855469 46.64390625 65.31710938 45.9453125 65.48046875 C39.97001006 66.97843238 34.71795127 68.90223686 29.2890625 71.81640625 C27 73 27 73 24.2734375 73.96484375 C23.14808594 74.47724609 23.14808594 74.47724609 22 75 C21.505 76.485 21.505 76.485 21 78 C19.66666667 79.33333333 18.33333333 80.66666667 17 82 C15.76487921 84.13309192 15.76487921 84.13309192 15 86 C14.34 86 13.68 86 13 86 C12.87882812 86.63808594 12.75765625 87.27617187 12.6328125 87.93359375 C12.46523437 88.75988281 12.29765625 89.58617187 12.125 90.4375 C11.96257812 91.26121094 11.80015625 92.08492188 11.6328125 92.93359375 C11.42398438 93.61550781 11.21515625 94.29742187 11 95 C10.01 95.495 10.01 95.495 9 96 C6.42894274 101.52777311 5.4550498 107.52760926 4.625 113.51953125 C3.92832727 116.28445115 2.84194323 117.85273466 1 120 C0.608125 118.824375 0.21625 117.64875 -0.1875 116.4375 C-0.45949219 115.62796875 -0.73148438 114.8184375 -1.01171875 113.984375 C-1.75861933 111.72891239 -2.48722206 109.46737914 -3.20703125 107.203125 C-3.63800575 105.86457848 -4.06899537 104.52603682 -4.5 103.1875 C-4.70133545 102.54159912 -4.9026709 101.89569824 -5.11010742 101.23022461 C-6.28345112 97.61606245 -7.65647634 94.96406232 -10 92 C-10.6875 88.75 -10.6875 88.75 -11 86 C-11.99 85.67 -12.98 85.34 -14 85 C-14 84.01 -14 83.02 -14 82 C-14.83144531 81.62488281 -14.83144531 81.62488281 -15.6796875 81.2421875 C-18.40018668 79.78575865 -20.6833227 78.01142707 -23.125 76.125 C-28.22616475 72.37195183 -33.06708482 70.08733307 -39 68 C-40.66814312 67.29515079 -42.3348098 66.58679737 -44 65.875 C-48.89363559 63.90201041 -53.80315386 62.84034108 -59 62 C-59 61.01 -59 60.02 -59 59 C-57.49373047 58.65388672 -57.49373047 58.65388672 -55.95703125 58.30078125 C-43.5893557 55.38287303 -31.9091037 52.1515251 -21.75 44.25 C-20 43 -20 43 -18 43 C-17.73316406 42.43410156 -17.46632812 41.86820313 -17.19140625 41.28515625 C-15.5028442 38.04643888 -13.41120441 35.12431349 -11.33984375 32.12109375 C-9.85075698 29.95108832 -9.85075698 29.95108832 -9 27 C-8.34 27 -7.68 27 -7 27 C-3.74755362 18.21839477 -1.94231107 9.13970744 0 0 Z " fill="#CDD24A" transform="translate(235,81)"/>
<path d="M0 0 C0 0.66 0 1.32 0 2 C0.804375 2.04125 1.60875 2.0825 2.4375 2.125 C9.29982771 3.810484 15.08293424 8.12440136 19 14 C19.51820312 14.70640625 20.03640625 15.4128125 20.5703125 16.140625 C23.80172954 22.60345908 23.05948956 32.0896134 21.19140625 38.984375 C17.46651046 47.07861221 10.80500498 53.22999507 4.5625 59.4140625 C3.67884766 60.29034302 3.67884766 60.29034302 2.77734375 61.18432617 C1.60910251 62.33668062 0.43476745 63.48289566 -0.74609375 64.62231445 C-4.05850536 67.85236704 -4.05850536 67.85236704 -6 72 C-4.90328979 71.9685791 -4.90328979 71.9685791 -3.78442383 71.93652344 C-0.46058999 71.85319686 2.86302384 71.80128668 6.1875 71.75 C7.33798828 71.71648437 8.48847656 71.68296875 9.67382812 71.6484375 C10.78564453 71.63554688 11.89746094 71.62265625 13.04296875 71.609375 C14.06414795 71.58842773 15.08532715 71.56748047 16.13745117 71.54589844 C19.79531872 72.1261657 21.43258976 73.36750049 24 76 C24.7664001 80.82832061 25.00025742 82.55463959 22.20483398 86.59399414 C18.07387409 90.56812785 12.43038737 89.67231865 7.05859375 89.59375 C5.8987648 89.59379028 4.73893585 89.59383057 3.54396057 89.59387207 C1.09541394 89.58851693 -1.35313225 89.57093477 -3.80151367 89.54199219 C-7.5524537 89.50011217 -11.30159981 89.50092653 -15.05273438 89.5078125 C-17.43230416 89.49732095 -19.81186469 89.48438304 -22.19140625 89.46875 C-23.31438614 89.46854858 -24.43736603 89.46834717 -25.59437561 89.46813965 C-26.63903488 89.45222778 -27.68369415 89.43631592 -28.76000977 89.41992188 C-30.13637352 89.40729309 -30.13637352 89.40729309 -31.5405426 89.39440918 C-34.50797373 88.91853915 -35.86452641 88.09767776 -38 86 C-39.05438604 82.27863752 -39.75377846 79.7676105 -38.21875 76.16796875 C-36.05695126 72.93257402 -33.41183608 70.41875506 -30.44921875 67.921875 C-25.30053177 63.46620117 -20.53928348 58.64797093 -15.75 53.8125 C-14.42355469 52.47928711 -14.42355469 52.47928711 -13.0703125 51.11914062 C-11.43340084 49.4735746 -9.79752632 47.82697569 -8.16308594 46.17895508 C-6.72579352 44.73111819 -5.26527617 43.30595936 -3.78222656 41.9050293 C-1.77742565 40.0275998 -1.77742565 40.0275998 -1 37 C-0.34 37 0.32 37 1 37 C1.84465079 28.75058708 1.84465079 28.75058708 -0.9375 21.25 C-4.51063966 18.62483617 -6.4987778 18.16598789 -10.84765625 18.484375 C-14.44859007 19.34703065 -15.90843218 21.02110038 -18 24 C-18.68255989 26.32873375 -19.35050775 28.66182791 -20 31 C-22.48186703 33.95914915 -23.98511121 33.99831901 -27.875 34.4375 C-32.28392533 34.20632039 -34.91043272 33.32128483 -38 30 C-39.41107551 24.9337289 -38.8577077 20.7430834 -36.546875 16.046875 C-31.13945648 8.00169135 -23.85967051 2.21649599 -14.2265625 0.234375 C-9.4952976 -0.26365288 -4.74875231 -0.14246257 0 0 Z " fill="#BBBD9A" transform="translate(96,445)"/>
<path d="M0 0 C-0.33 0.66 -0.66 1.32 -1 2 C16.44501544 4.51178836 16.44501544 4.51178836 34 6 C34 6.99 34 7.98 34 9 C32.93640259 9.15819214 32.93640259 9.15819214 31.85131836 9.31958008 C19.91379348 11.10319243 8.01435517 12.89256705 -3.8046875 15.3515625 C-11.13365648 16.83885938 -18.49961163 17.85765308 -25.9375 18.61328125 C-27.00492432 18.72865234 -28.07234863 18.84402344 -29.17211914 18.96289062 C-31.31266012 19.19206855 -33.45517439 19.40365144 -35.59936523 19.59570312 C-41.97117544 20.29172699 -45.72666732 21.07350752 -50 26 C-51.71181407 30.2165365 -52.27875932 33.881836 -52.39477539 38.41333008 C-52.43143814 39.66515579 -52.46810089 40.91698151 -52.50587463 42.20674133 C-52.53654647 43.56100288 -52.56713835 44.91526623 -52.59765625 46.26953125 C-52.63634032 47.67431611 -52.67594221 49.07907597 -52.71641541 50.48381042 C-52.82077931 54.17415041 -52.91489461 57.86467446 -53.00616455 61.55535889 C-53.15330116 67.45054736 -53.31449435 73.34535162 -53.47863579 79.24008751 C-53.53389784 81.28545482 -53.58384423 83.3308988 -53.6330719 85.37641907 C-53.78839723 91.22260329 -54.05089592 96.95960425 -54.78031921 102.76060486 C-55.24917643 107.54006959 -55.17854514 112.35003386 -55.2109375 117.1484375 C-55.23897011 119.47526789 -55.26763423 121.80209073 -55.296875 124.12890625 C-55.33833172 127.76969473 -55.37525344 131.4103366 -55.40136719 135.05126953 C-55.42885146 138.58394656 -55.47467486 142.1159989 -55.5234375 145.6484375 C-55.52669037 146.74215668 -55.52994324 147.83587585 -55.53329468 148.96273804 C-55.54986115 149.97454132 -55.56642761 150.9863446 -55.58349609 152.02880859 C-55.59158295 152.91877533 -55.5996698 153.80874207 -55.60800171 154.72567749 C-56.08098281 157.46985163 -56.9694032 158.18042039 -59 160 C-59.33 160.99 -59.66 161.98 -60 163 C-62.60242414 164.64820195 -63.86248779 165 -67 165 C-67.01030746 164.06072662 -67.02061493 163.12145325 -67.03123474 162.15371704 C-67.13068952 153.12855552 -67.23352174 144.10343738 -67.33933926 135.07834816 C-67.39358946 130.4428733 -67.44680703 125.80739228 -67.49731445 121.171875 C-67.71541855 101.22377029 -68.02314688 81.28765213 -68.65263367 61.34799194 C-68.95725524 51.69344179 -69.21358679 42.04353814 -69.24023438 32.38378906 C-69.24697444 30.91108477 -69.26110352 29.43840222 -69.28125 27.96582031 C-69.31157421 25.73225263 -69.3222312 23.49937453 -69.328125 21.265625 C-69.3374707 20.00524414 -69.34681641 18.74486328 -69.35644531 17.44628906 C-68.89042291 12.94055469 -67.38013494 9.66766305 -64.5 6.1875 C-61.75311845 4.01288544 -58.98688473 3.85158693 -55.62109375 3.71875 C-54.78255859 3.68136719 -53.94402344 3.64398438 -53.08007812 3.60546875 C-51.31445933 3.53500059 -49.54883429 3.46468878 -47.78320312 3.39453125 C-46.94595703 3.35714844 -46.10871094 3.31976563 -45.24609375 3.28125 C-44.47966553 3.25095703 -43.7132373 3.22066406 -42.92358398 3.18945312 C-40.91725487 3.107541 -40.91725487 3.107541 -39 2 C-36.85717739 1.77567182 -34.70844064 1.60686562 -32.55859375 1.46484375 C-31.25212891 1.37783203 -29.94566406 1.29082031 -28.59960938 1.20117188 C-27.91535889 1.15790771 -27.2311084 1.11464355 -26.52612305 1.07006836 C-24.4694905 0.93953049 -22.41347869 0.80138985 -20.35742188 0.66210938 C-13.55655832 0.21893698 -6.81511362 -0.11295768 0 0 Z " fill="#9AA84F" transform="translate(402,161)"/>
<path d="M0 0 C5.62740985 3.28265574 10.37057479 7.61614958 13.3125 13.5 C13.40985819 15.81082534 13.44227373 18.12462958 13.4375 20.4375 C13.44136719 22.30728516 13.44136719 22.30728516 13.4453125 24.21484375 C13.21620165 29.88196802 11.19471468 31.61778532 7.3125 35.5 C6.01730005 37.66620544 6.01730005 37.66620544 5.3125 39.5 C5.90675781 39.59667969 6.50101563 39.69335938 7.11328125 39.79296875 C9.76928478 40.64685266 10.72767703 41.68480122 12.5 43.8125 C13.00917969 44.40675781 13.51835938 45.00101563 14.04296875 45.61328125 C16.6693296 49.51645752 16.44806527 53.39354265 16.4375 58 C16.44136719 59.68609375 16.44136719 59.68609375 16.4453125 61.40625 C16.33516367 63.9720699 16.06520662 66.06266427 15.3125 68.5 C14.6525 68.5 13.9925 68.5 13.3125 68.5 C13.22484375 69.25152344 13.1371875 70.00304687 13.046875 70.77734375 C12.17138504 74.02317622 11.14404087 74.9710637 8.5625 77.0625 C7.84191406 77.65417969 7.12132812 78.24585938 6.37890625 78.85546875 C5.69699219 79.39816406 5.01507813 79.94085937 4.3125 80.5 C2.9203125 81.675625 2.9203125 81.675625 1.5 82.875 C-3.20329322 86.36887496 -8.3322941 85.71941225 -13.9375 85.75 C-14.86691406 85.770625 -15.79632813 85.79125 -16.75390625 85.8125 C-25.20756092 85.86032831 -30.89116967 83.70569983 -37.6875 78.5 C-41.94654464 74.14947231 -45.33802533 70.24587244 -46.125 64.0625 C-45.6875 60.5 -45.6875 60.5 -43.625 57.5625 C-39.8733258 54.92834577 -38.19238923 54.72329496 -33.6875 55.5 C-28.4795419 58.07668367 -25.78227933 61.63677534 -22.6875 66.5 C-17.89377521 68.09790826 -14.08560878 68.05396763 -9.375 66.1875 C-6.47196113 64.62051513 -6.47196113 64.62051513 -4.6875 61.5 C-4.10679473 55.68051663 -4.10679473 55.68051663 -6.5625 50.5625 C-10.40583684 46.83220248 -13.90282724 47.23744017 -19.05859375 46.9765625 C-21.6875 46.5 -21.6875 46.5 -23.515625 45.27734375 C-25.08456866 42.8977792 -25.05420654 41.26874915 -25 38.4375 C-24.99613281 37.55964844 -24.99226563 36.68179688 -24.98828125 35.77734375 C-24.6875 33.5 -24.6875 33.5 -22.6875 31.5 C-20.92210219 31.32658733 -19.14830841 31.2330925 -17.375 31.1875 C-13.36114133 30.8819832 -11.91057425 30.65309017 -8.5 28.3125 C-6.36173035 24.99449536 -6.01400055 23.37262186 -6.6875 19.5 C-8.54092775 16.94050454 -9.62506393 16.52081202 -12.6875 15.5 C-18.59831811 14.81974725 -18.59831811 14.81974725 -23.5 17.75 C-25.68175139 20.32766934 -25.68175139 20.32766934 -26.9375 22.8125 C-29.1047735 24.90237088 -30.10193429 24.88662481 -33.0625 25.0625 C-36.5388783 24.88072859 -37.73823035 24.46854719 -40.8125 22.5625 C-43.05745841 18.89573459 -43.26693978 17.00395238 -42.51171875 12.83984375 C-40.39392706 6.8277242 -35.69342829 2.77571016 -30.375 -0.5 C-21.0961275 -4.65070174 -9.14222385 -4.19737321 0 0 Z " fill="#B5BB88" transform="translate(105.6875,587.5)"/>
<path d="M0 0 C4.54054054 2.08108108 4.54054054 2.08108108 6 5 C6.10839198 7.44507282 6.15730533 9.86210087 6.16113281 12.30786133 C6.16858017 13.43741997 6.16858017 13.43741997 6.17617798 14.58979797 C6.19081229 17.08721829 6.19760415 19.58457506 6.203125 22.08203125 C6.20887598 23.81597394 6.21463372 25.54991661 6.22039795 27.28385925 C6.23091194 30.92304786 6.23675181 34.56221435 6.24023438 38.20141602 C6.24571601 42.86212412 6.26973518 47.52253962 6.29820633 52.18315601 C6.31684197 55.76654408 6.32203883 59.34986186 6.32357025 62.9332943 C6.32659588 64.65127853 6.33462139 66.36926156 6.34775543 68.08719826 C6.36483342 70.49300921 6.3629315 72.89810789 6.35644531 75.30395508 C6.37026749 76.36631378 6.37026749 76.36631378 6.3843689 77.45013428 C6.34769886 81.79778868 5.66420075 84.53993281 3 88 C0.56045342 89.21977329 -1.15305849 89.20153813 -3.875 89.25 C-4.73867187 89.27578125 -5.60234375 89.3015625 -6.4921875 89.328125 C-9.51033741 88.93322688 -10.8186724 88.09329196 -13 86 C-14.00951397 82.9714581 -14.121045 80.95994658 -14.11352539 77.79418945 C-14.11344986 76.73331619 -14.11337433 75.67244293 -14.11329651 74.579422 C-14.10813522 73.43559555 -14.10297394 72.2917691 -14.09765625 71.11328125 C-14.0962413 69.94113571 -14.09482635 68.76899017 -14.09336853 67.56132507 C-14.08776388 63.81169093 -14.07521056 60.06211615 -14.0625 56.3125 C-14.0574856 53.77278732 -14.05292259 51.2330737 -14.04882812 48.69335938 C-14.03779294 42.46221927 -14.02105025 36.23111388 -14 30 C-14.81404297 30.57459961 -15.62808594 31.14919922 -16.46679688 31.74121094 C-17.53994141 32.48145508 -18.61308594 33.22169922 -19.71875 33.984375 C-21.31106445 35.09377441 -21.31106445 35.09377441 -22.93554688 36.22558594 C-25.87661437 37.92855587 -27.18665235 38.5757242 -30.5 38.25 C-36.13932584 36.23595506 -36.13932584 36.23595506 -38 33 C-38.40816325 29.74706259 -38.1028298 27.08792345 -37 24 C-34.99235825 21.49185373 -32.64075365 19.80217113 -30 18 C-29.03513672 17.26910156 -29.03513672 17.26910156 -28.05078125 16.5234375 C-23.35614525 13 -23.35614525 13 -21 13 C-20.67 12.01 -20.34 11.02 -20 10 C-19.34 10 -18.68 10 -18 10 C-17.731875 9.4225 -17.46375 8.845 -17.1875 8.25 C-13.1645198 0.6275112 -8.36255353 -0.99873634 0 0 Z " fill="#C1C1A6" transform="translate(101,305)"/>
<path d="M0 0 C1.90090635 2.85135953 2.7221054 5.02205028 3.75 8.25 C6.0021481 14.57945712 9.05656755 18.62890164 14.25 22.8125 C18.35287983 24.58419811 22.60608358 25.27479049 27 26 C27 26.66 27 27.32 27 28 C26.154375 28.20753906 25.30875 28.41507813 24.4375 28.62890625 C15.96319853 30.93044949 9.62351593 33.5223458 4.6640625 41.01953125 C2.56410352 44.91413602 1.44356954 48.56430458 1 53 C0.34 52.34 -0.32 51.68 -1 51 C-1 49.68 -1 48.36 -1 47 C-1.66 47 -2.32 47 -3 47 C-3.23074219 46.39671875 -3.46148437 45.7934375 -3.69921875 45.171875 C-5.74505164 40.15837147 -7.37453137 37.08364575 -12 34 C-12.41765625 33.49597656 -12.8353125 32.99195313 -13.265625 32.47265625 C-15.74261571 30.36944567 -18.00111407 30.25790879 -21.1875 29.8125 C-22.81751953 29.57466797 -22.81751953 29.57466797 -24.48046875 29.33203125 C-25.72763672 29.16767578 -25.72763672 29.16767578 -27 29 C-27 28.01 -27 27.02 -27 26 C-25.625 25.54166667 -24.25 25.08333333 -22.875 24.625 C-22.05 24.34269531 -21.225 24.06039062 -20.375 23.76953125 C-18 23 -18 23 -14.875 22.3125 C-9.16527709 19.70588737 -4.66219288 13.60461659 -2 8 C-1.21312437 5.34553981 -0.59661331 2.70770655 0 0 Z " fill="#BFC644" transform="translate(339,41)"/>
<path d="M0 0 C0 0.33 0 0.66 0 1 C-2.35344806 1.33923576 -4.7075484 1.67150534 -7.0625 2 C-8.04766602 2.14308594 -8.04766602 2.14308594 -9.05273438 2.2890625 C-13.40677164 2.88961936 -17.61082367 3.03690322 -22 3 C-21.99815641 4.05483928 -21.99631283 5.10967855 -21.99441338 6.19648266 C-21.94995955 31.89590912 -21.91712251 57.59533058 -21.89637566 83.29478741 C-21.88607526 95.72298743 -21.87203857 108.15116201 -21.84912109 120.5793457 C-21.82914936 131.41523993 -21.81627458 142.25111573 -21.81182301 153.08702785 C-21.80922204 158.82135953 -21.80313441 164.55563849 -21.78853989 170.28995323 C-21.77489618 175.69482211 -21.77079102 181.09961688 -21.77378464 186.50450134 C-21.7732375 188.48087785 -21.76930073 190.45725701 -21.76158905 192.43361855 C-21.72302552 202.83281581 -21.93053677 212.76716594 -24 223 C-24.66 223 -25.32 223 -26 223 C-26.020625 224.258125 -26.04125 225.51625 -26.0625 226.8125 C-27.08317307 236.08604385 -34.41897844 243.86528745 -40 251 C-40.33 250.34 -40.66 249.68 -41 249 C-39.70703125 246.6796875 -39.70703125 246.6796875 -37.8125 243.875 C-31.84031793 234.76831282 -27.33503745 225.90280584 -26 215 C-25.67 214.67 -25.34 214.34 -25 214 C-24.90660312 211.32813585 -24.878983 208.68229551 -24.89320374 206.01017761 C-24.89376044 205.16276656 -24.89431715 204.31535551 -24.89489073 203.44226533 C-24.89794591 200.58021568 -24.90814143 197.71823411 -24.91821289 194.85620117 C-24.92176624 192.81330946 -24.92485299 190.77041689 -24.92750549 188.7275238 C-24.93407331 184.31693194 -24.94364361 179.90636008 -24.95540047 175.49577904 C-24.97363367 168.52578033 -24.9832765 161.5557866 -24.99131775 154.58576965 C-25.01551439 134.76182916 -25.05135631 114.93791843 -25.09594727 95.11401367 C-25.12047866 84.17419246 -25.13785128 73.234383 -25.14750665 62.29453832 C-25.15406134 55.36193532 -25.16964547 48.4294287 -25.19182408 41.49685895 C-25.20353481 37.1864488 -25.20692038 32.87606229 -25.20792198 28.56563759 C-25.21007392 26.56290128 -25.21568082 24.56016534 -25.2249527 22.55744934 C-25.23710007 19.82847423 -25.23699313 17.09976717 -25.23377991 14.37077332 C-25.24028771 13.57378956 -25.24679551 12.7768058 -25.25350052 11.95567101 C-25.22188564 5.08018953 -25.22188564 5.08018953 -23 2 C-16.45991226 -1.27004387 -7.1268959 -0.12194309 0 0 Z " fill="#9EB17D" transform="translate(545,185)"/>
<path d="M0 0 C0 0.33 0 0.66 0 1 C-0.55349121 1.08040527 -1.10698242 1.16081055 -1.67724609 1.24365234 C-4.24357081 1.61805268 -6.80937583 1.99582813 -9.375 2.375 C-10.29877441 2.51147949 -11.22254883 2.64795898 -12.17431641 2.78857422 C-16.60580135 3.45341442 -20.99924175 4.14932417 -25.375 5.125 C-30.37838423 6.20729233 -35.40334252 6.42047771 -40.5078125 6.65625 C-43.75427275 6.97581208 -46.68798512 7.68677296 -49.83105469 8.52734375 C-52.20442695 9.04454869 -54.48704666 9.26002069 -56.91015625 9.421875 C-57.75513672 9.47859375 -58.60011719 9.5353125 -59.47070312 9.59375 C-61.20159339 9.69809907 -62.93351096 9.78659161 -64.66601562 9.859375 C-71.05675572 10.32806182 -74.75574185 12.14432897 -79 17 C-80.40940906 19.81881813 -80.15606265 22.19671058 -80.18945312 25.35009766 C-80.19776626 26.00568067 -80.20607939 26.66126368 -80.21464443 27.33671284 C-80.24136593 29.52913576 -80.26123179 31.72156894 -80.28125 33.9140625 C-80.29904968 35.46359298 -80.31733412 37.01311795 -80.33607483 38.56263733 C-80.37525848 41.86598432 -80.41165965 45.16934519 -80.4458313 48.4727478 C-80.52590097 56.18652289 -80.62027753 63.90012636 -80.71469307 71.61373711 C-80.73566667 73.33023313 -80.75647267 75.04673121 -80.77711296 76.76323128 C-80.96162925 92.07312945 -81.22514735 107.38012347 -81.5625 122.6875 C-81.58473633 123.70281799 -81.60697266 124.71813599 -81.62988281 125.76422119 C-81.74908508 131.17624871 -81.87223262 136.5881681 -82 142 C-82.33 142 -82.66 142 -83 142 C-83.07012202 126.19682457 -83.12300378 110.39369123 -83.15543652 94.59039879 C-83.17089675 87.25243296 -83.19197005 79.91456388 -83.22631836 72.57666016 C-83.25624665 66.1799566 -83.27558114 59.78332312 -83.28226548 53.3865515 C-83.28617197 50.00037372 -83.2953349 46.61439638 -83.31719017 43.22828293 C-83.33894125 39.44552433 -83.34196781 35.66318209 -83.34057617 31.88037109 C-83.351362 30.76115265 -83.36214783 29.6419342 -83.3732605 28.48880005 C-83.34405082 21.15963149 -82.57221227 16.62702349 -77.27319336 11.21508789 C-73.54464338 8.69184377 -71.07535566 8.10708531 -66.62890625 7.55859375 C-65.92178497 7.46539856 -65.2146637 7.37220337 -64.4861145 7.27618408 C-62.18025311 6.97697578 -59.87200487 6.70700129 -57.5625 6.4375 C-55.95720141 6.23535099 -54.35214031 6.03130768 -52.74731445 5.82543945 C-49.45742565 5.40630103 -46.16642024 4.99855449 -42.87402344 4.59960938 C-38.23648478 4.03467913 -33.60619699 3.42290157 -28.9765625 2.796875 C-26.88075596 2.51576388 -24.78486659 2.23528074 -22.68893433 1.95510864 C-20.73013028 1.69320003 -18.77143593 1.43047143 -16.81274414 1.16772461 C-11.16783349 0.43584274 -5.69421878 -0.22709587 0 0 Z " fill="#768B45" transform="translate(270,273)"/>
<path d="M0 0 C0 0.66 0 1.32 0 2 C1.10118164 2.07516846 1.10118164 2.07516846 2.22460938 2.15185547 C15.86691964 3.0936618 29.45930899 4.05080405 43 6 C42.67 6.99 42.34 7.98 42 9 C37.03926578 10.32286246 32.08888488 10.08893197 27 10 C27 9.67 27 9.34 27 9 C29.475 8.505 29.475 8.505 32 8 C22.51130575 5.94650451 13.03519161 5.38288143 3.36401367 4.89550781 C1.36595441 4.79232721 -0.63149826 4.6776015 -2.62890625 4.5625 C-4.3934314 4.47162109 -4.3934314 4.47162109 -6.19360352 4.37890625 C-9 4 -9 4 -11 2 C-18.335344 1.64712265 -25.62777696 2.33792411 -32.9375 2.9375 C-34.07251953 3.02451172 -35.20753906 3.11152344 -36.37695312 3.20117188 C-37.99827148 3.33168945 -37.99827148 3.33168945 -39.65234375 3.46484375 C-40.63195068 3.543396 -41.61155762 3.62194824 -42.62084961 3.70288086 C-45.0123876 3.86747409 -45.0123876 3.86747409 -47 5 C-48.52148326 5.08372659 -50.04655778 5.10730027 -51.5703125 5.09765625 C-52.46621094 5.09443359 -53.36210937 5.09121094 -54.28515625 5.08789062 C-55.22230469 5.07951172 -56.15945312 5.07113281 -57.125 5.0625 C-58.06988281 5.05798828 -59.01476562 5.05347656 -59.98828125 5.04882812 C-62.32558387 5.03702357 -64.66276061 5.02055759 -67 5 C-66.67 4.34 -66.34 3.68 -66 3 C-62.91208542 2.60331285 -59.89980503 2.33631864 -56.796875 2.1484375 C-55.37547211 2.05280014 -55.37547211 2.05280014 -53.925354 1.95523071 C-51.90122087 1.82131391 -49.87676619 1.69218746 -47.85205078 1.56738281 C-44.83141205 1.38004901 -41.81231338 1.1757794 -38.79296875 0.96875 C-25.84569357 0.11512738 -12.97323097 -0.16684202 0 0 Z " fill="#7E904E" transform="translate(246,263)"/>
<path d="M0 0 C0.33 0 0.66 0 1 0 C1 47.19 1 94.38 1 143 C-2.54350211 143.88587553 -4.05202795 144.04014704 -7.4921875 143.59765625 C-13.36369098 142.9259804 -19.22183099 142.66656699 -25.125 142.4375 C-26.176875 142.39431641 -27.22875 142.35113281 -28.3125 142.30664062 C-30.87490627 142.20181491 -33.43738799 142.09964645 -36 142 C-36 141.67 -36 141.34 -36 141 C-24.45 141 -12.9 141 -1 141 C-0.67 94.47 -0.34 47.94 0 0 Z " fill="#4F6330" transform="translate(454,155)"/>
<path d="M0 0 C0.33 0 0.66 0 1 0 C1.33 3.96 1.66 7.92 2 12 C2.33 12 2.66 12 3 12 C3 26.19 3 40.38 3 55 C2.67 55 2.34 55 2 55 C0.98535528 49.77330073 0.67066084 44.61822575 0.4375 39.3125 C0.3950415 38.37583496 0.35258301 37.43916992 0.30883789 36.47412109 C-0.18374927 24.32099489 -0.09062428 12.16038408 0 0 Z " fill="#8B9D4A" transform="translate(343,262)"/>
<path d="M0 0 C2.76567092 0.64965424 5.39158453 1.47397349 8.0625 2.4375 C12.58322293 3.97951032 17.10156326 4.82441418 21.8125 5.5703125 C24 6 24 6 25 7 C33.50598122 8.94936464 42.05738549 9.38900142 50.75 9.625 C52.52890625 9.68300781 52.52890625 9.68300781 54.34375 9.7421875 C57.22902375 9.83526085 60.11431021 9.92108941 63 10 C63 10.33 63 10.66 63 11 C33.01849937 11.61618809 33.01849937 11.61618809 19 8 C17.61637378 7.68146496 16.2322408 7.36512456 14.84765625 7.05078125 C3.70096566 4.38802611 3.70096566 4.38802611 0 0 Z " fill="#9BAF77" transform="translate(337,473)"/>
<path d="M0 0 C0.33 0 0.66 0 1 0 C1.0272415 1.41655793 1.04650467 2.83327045 1.0625 4.25 C1.07410156 5.03890625 1.08570313 5.8278125 1.09765625 6.640625 C1.00385306 8.90691002 0.63241063 10.8288895 0 13 C-0.66 13 -1.32 13 -2 13 C-2.020625 14.258125 -2.04125 15.51625 -2.0625 16.8125 C-3.08317307 26.08604385 -10.41897844 33.86528745 -16 41 C-16.33 40.34 -16.66 39.68 -17 39 C-15.70703125 36.6796875 -15.70703125 36.6796875 -13.8125 33.875 C-7.80624543 24.71635734 -3.44310267 15.9263488 -2 5 C-0.9375 2.0625 -0.9375 2.0625 0 0 Z " fill="#A4B87E" transform="translate(521,395)"/>
<path d="M0 0 C-1.72343755 0.84511824 -3.45404053 1.67563354 -5.1875 2.5 C-6.63189453 3.19609375 -6.63189453 3.19609375 -8.10546875 3.90625 C-10.98922693 4.99592921 -12.95354861 5.22277524 -16 5 C-16 5.66 -16 6.32 -16 7 C-17.00417969 7.40734375 -18.00835937 7.8146875 -19.04296875 8.234375 C-23.66982748 10.21515058 -27.89579343 12.78136666 -32.18945312 15.390625 C-33.76014727 16.31837486 -35.37729821 17.16655005 -37 18 C-37.66 17.67 -38.32 17.34 -39 17 C-22.19101124 6 -22.19101124 6 -17 6 C-17 5.34 -17 4.68 -17 4 C-14.92227529 3.13227971 -12.83756823 2.28126381 -10.75 1.4375 C-9.58984375 0.96183594 -8.4296875 0.48617188 -7.234375 -0.00390625 C-4.13733356 -0.95770524 -2.92678299 -1.20983356 0 0 Z " fill="#F2F6E2" transform="translate(390,347)"/>
<path d="M0 0 C8.46204771 -0.30221599 16.63745983 0.85079203 25 2 C24.67 2.99 24.34 3.98 24 5 C19.03926578 6.32286246 14.08888488 6.08893197 9 6 C9 5.67 9 5.34 9 5 C10.65 4.67 12.3 4.34 14 4 C9.38 3.01 4.76 2.02 0 1 C0 0.67 0 0.34 0 0 Z " fill="#7A8E44" transform="translate(264,267)"/>
<path d="M0 0 C3.5532631 2.71965299 4.42132182 6.59059113 5.6875 10.6875 C5.91244141 11.38939453 6.13738281 12.09128906 6.36914062 12.81445312 C6.92096357 14.54036743 7.46159058 16.26985433 8 18 C8.12117187 17.28972656 8.24234375 16.57945312 8.3671875 15.84765625 C8.61855469 14.46900391 8.61855469 14.46900391 8.875 13.0625 C9.03742188 12.14597656 9.19984375 11.22945312 9.3671875 10.28515625 C9.57601562 9.53105469 9.78484375 8.77695313 10 8 C10.66 7.67 11.32 7.34 12 7 C11.7438709 9.08519216 11.46951265 11.1681505 11.1875 13.25 C11.03667969 14.41015625 10.88585937 15.5703125 10.73046875 16.765625 C10.00362557 19.98394666 9.18338975 21.58331655 7 24 C6.31002593 21.93007779 5.62060868 19.85996874 4.93359375 17.7890625 C4.26831712 15.80158337 3.59271138 13.81754916 2.91015625 11.8359375 C2.54792969 10.77632812 2.18570313 9.71671875 1.8125 8.625 C1.46832031 7.62726563 1.12414062 6.62953125 0.76953125 5.6015625 C0 3 0 3 0 0 Z " fill="#99A241" transform="translate(229,177)"/>
<path d="M0 0 C0.33 0 0.66 0 1 0 C1.33 6.93 1.66 13.86 2 21 C4.97 19.68 7.94 18.36 11 17 C13.31939207 16.2863409 15.6487242 15.60032574 18 15 C12.44631487 21.05386175 3.60844389 23.52283222 -4 26 C-3.67 25.34 -3.34 24.68 -3 24 C-2.34 24 -1.68 24 -1 24 C-0.67 16.08 -0.34 8.16 0 0 Z " fill="#5F7439" transform="translate(346,296)"/>
<path d="M0 0 C1.98 0 3.96 0 6 0 C2.62638277 2.92323508 -0.9944064 4.19357752 -5.1875 5.5 C-6.53520974 5.93212487 -7.88286622 6.36441591 -9.23046875 6.796875 C-10.47441406 7.19390625 -11.71835937 7.5909375 -13 8 C-14.66766561 8.58047134 -16.33454771 9.16320852 -18 9.75 C-21.65862047 10.97879663 -25.16506394 11.59202808 -29 12 C-25.35184337 8.70705862 -21.37645675 7.71279286 -16.75 6.4375 C-16.02425781 6.22931641 -15.29851562 6.02113281 -14.55078125 5.80664062 C-9.72501578 4.43460927 -4.87212558 3.19598558 0 2 C0 1.34 0 0.68 0 0 Z " fill="#A3B77F" transform="translate(456,468)"/>
<path d="M0 0 C0.33 0 0.66 0 1 0 C1.33 8.91 1.66 17.82 2 27 C3.65 26.67 5.3 26.34 7 26 C7 26.66 7 27.32 7 28 C4.35261084 29.4606285 3.10551666 30 0 30 C0 20.1 0 10.2 0 0 Z " fill="#738642" transform="translate(335,296)"/>
<path d="M0 0 C1.60879768 0.22242438 3.21690144 0.45118153 4.82080078 0.70654297 C9.0041672 1.26988673 13.22344403 1.37743347 17.4375 1.5625 C18.35982422 1.60568359 19.28214844 1.64886719 20.23242188 1.69335938 C22.48816163 1.79854931 24.74399499 1.90069107 27 2 C27.33 2.66 27.66 3.32 28 4 C9.62257169 4.27474561 9.62257169 4.27474561 1 3 C0.34 2.34 -0.32 1.68 -1 1 C-0.67 0.67 -0.34 0.34 0 0 Z " fill="#819549" transform="translate(236,264)"/>
<path d="M0 0 C-2.99656545 3.54856435 -6.25857593 4.06464398 -10.625 5.15625 C-13.16990043 6.06035936 -14.20834226 7.03921822 -16 9 C-18.1875 9.6875 -18.1875 9.6875 -20 10 C-20 9.34 -20 8.68 -20 8 C-3.28430296 -1.64215148 -3.28430296 -1.64215148 0 0 Z " fill="#768538" transform="translate(277,148)"/>
<path d="M0 0 C1.46726798 3.81489674 0.43336419 6.29011622 -1 10 C-1.99 10 -2.98 10 -4 10 C-6 8 -6 8 -6.125 5.375 C-6.08375 4.59125 -6.0425 3.8075 -6 3 C-5.34 3 -4.68 3 -4 3 C-3.67 4.32 -3.34 5.64 -3 7 C-2.01 4.69 -1.02 2.38 0 0 Z " fill="#627431" transform="translate(342,85)"/>
<path d="M0 0 C1.27230469 0.00902344 2.54460937 0.01804687 3.85546875 0.02734375 C5.31919922 0.04474609 5.31919922 0.04474609 6.8125 0.0625 C6.8125 0.3925 6.8125 0.7225 6.8125 1.0625 C-0.28455662 2.40745828 -6.9600395 3.30341535 -14.1875 3.0625 C-9.24474182 0.50590094 -5.58463851 -0.05123522 0 0 Z " fill="#A2B57C" transform="translate(419.1875,479.9375)"/>
<path d="M0 0 C-1.41519715 2.0343459 -2.54982123 2.90410393 -4.98046875 3.421875 C-6.98176954 3.66273952 -8.9909944 3.83532741 -11 4 C-11 3.01 -11 2.02 -11 1 C-7.26562152 0.12132271 -3.83225427 -0.08912219 0 0 Z " fill="#B6C047" transform="translate(187,139)"/>
<path d="M0 0 C0.66 0.495 1.32 0.99 2 1.5 C6.06168997 3.53084499 8.47338043 3.35925552 13 3 C15.40557853 2.13734032 15.40557853 2.13734032 17 1 C16.34 2.32 15.68 3.64 15 5 C13.2507786 5.08142927 11.50045458 5.13938541 9.75 5.1875 C8.77546875 5.22230469 7.8009375 5.25710938 6.796875 5.29296875 C3.60293349 4.95840784 2.27119696 4.23334367 0 2 C0 1.34 0 0.68 0 0 Z " fill="#68735C" transform="translate(59,475)"/>
<path d="M0 0 C0.66 0 1.32 0 2 0 C2.49230769 7.38461538 2.49230769 7.38461538 0 10.5 C-0.66 10.995 -1.32 11.49 -2 12 C-1.44687265 7.97007218 -0.8441938 3.97977076 0 0 Z " fill="#B7BD4D" transform="translate(235,81)"/>
<path d="M0 0 C0.66 0 1.32 0 2 0 C2.33 4.29 2.66 8.58 3 13 C0.73437327 10.73437327 0.05537251 9.15839295 -0.09765625 5.95703125 C-0.06510417 3.97135417 -0.03255208 1.98567708 0 0 Z " fill="#586B2E" transform="translate(237,81)"/>
<path d="M0 0 C-3.06655255 2.04436837 -4.87109668 2.54390211 -8.4375 3.1875 C-9.38496094 3.36667969 -10.33242188 3.54585937 -11.30859375 3.73046875 C-13.89211739 3.98919608 -15.56054763 3.81315079 -18 3 C-11.92122066 -0.24201565 -6.81598387 -0.33278764 0 0 Z " fill="#63765C" transform="translate(587,60)"/>
<path d="M0 0 C1.98 0 3.96 0 6 0 C2.89621148 2.63822024 0.18537076 3.70365731 -3.75 4.6875 C-5.22726562 5.06455078 -5.22726562 5.06455078 -6.734375 5.44921875 C-7.48203125 5.63097656 -8.2296875 5.81273437 -9 6 C-6.21466571 2.88009102 -4.15654359 2.46183818 0 2 C0 1.34 0 0.68 0 0 Z " fill="#9CB079" transform="translate(456,468)"/>
<path d="M0 0 C2 2 2 2 2 5 C3.65 4.67 5.3 4.34 7 4 C7 4.66 7 5.32 7 6 C4.35261084 7.4606285 3.10551666 8 0 8 C0 5.36 0 2.72 0 0 Z " fill="#687D3D" transform="translate(335,318)"/>
<path d="M0 0 C2.54055845 0.25552438 5.03852505 0.56707159 7.5625 0.9375 C8.27341797 1.03740234 8.98433594 1.13730469 9.71679688 1.24023438 C11.47856957 1.48853791 13.23938152 1.74364039 15 2 C15 2.33 15 2.66 15 3 C12.70858714 3.05384521 10.41681812 3.09272087 8.125 3.125 C6.21074219 3.15980469 6.21074219 3.15980469 4.2578125 3.1953125 C1 3 1 3 -1 1 C-0.67 0.67 -0.34 0.34 0 0 Z " fill="#899D50" transform="translate(236,264)"/>
<path d="M0 0 C1.33804688 0.04060547 1.33804688 0.04060547 2.703125 0.08203125 C3.37859375 0.11683594 4.0540625 0.15164062 4.75 0.1875 C4.42 0.8475 4.09 1.5075 3.75 2.1875 C0.80859375 2.6015625 0.80859375 2.6015625 -2.8125 2.8125 C-4.01003906 2.88726562 -5.20757813 2.96203125 -6.44140625 3.0390625 C-7.36824219 3.08804688 -8.29507813 3.13703125 -9.25 3.1875 C-6.10408067 0.38704377 -4.182936 -0.16511589 0 0 Z " fill="#596C50" transform="translate(559.25,63.8125)"/>
<path d="M0 0 C0.66 0.33 1.32 0.66 2 1 C0.02 3.31 -1.96 5.62 -4 8 C-5.32 7.67 -6.64 7.34 -8 7 C-6.68 6.34 -5.36 5.68 -4 5 C-4 4.34 -4 3.68 -4 3 C-2 1.375 -2 1.375 0 0 Z " fill="#869A66" transform="translate(489,449)"/>
<path d="M0 0 C3.96 0 7.92 0 12 0 C12 0.99 12 1.98 12 3 C10.02 3 8.04 3 6 3 C6 2.67 6 2.34 6 2 C3.03 1.505 3.03 1.505 0 1 C0 0.67 0 0.34 0 0 Z " fill="#95A447" transform="translate(424,167)"/>
<path d="M0 0 C4.29 0 8.58 0 13 0 C13 0.99 13 1.98 13 3 C8.71 2.34 4.42 1.68 0 1 C0 0.67 0 0.34 0 0 Z " fill="#778D43" transform="translate(233,263)"/>
<path d="M0 0 C1.8125 0.0625 1.8125 0.0625 4 1 C5.6875 4.4375 5.6875 4.4375 7 8 C7.33 8.66 7.66 9.32 8 10 C3.79236776 8.4972742 2.1972242 5.76667005 0 2 C0 1.34 0 0.68 0 0 Z " fill="#B2C391" transform="translate(305,443)"/>
<path d="M0 0 C0.66 0 1.32 0 2 0 C2.33 1.65 2.66 3.3 3 5 C1.35 6.32 -0.3 7.64 -2 9 C-1.41196203 5.97580475 -0.77321882 2.98241547 0 0 Z " fill="#CCCE4F" transform="translate(338,45)"/>
<path d="M0 0 C0.99 0.33 1.98 0.66 3 1 C-1.75 6.75 -1.75 6.75 -4 9 C-3.38461538 3.46153846 -3.38461538 3.46153846 -1.4375 1.125 C-0.963125 0.75375 -0.48875 0.3825 0 0 Z " fill="#7C8F4F" transform="translate(176,268)"/>
<path d="M0 0 C0.66 0.33 1.32 0.66 2 1 C-0.97 4.96 -0.97 4.96 -4 9 C-4.33 8.34 -4.66 7.68 -5 7 C-3.35 4.69 -1.7 2.38 0 0 Z " fill="#ADC284" transform="translate(509,427)"/>
<path d="M0 0 C0.66 0.33 1.32 0.66 2 1 C0.875 2.9375 0.875 2.9375 -1 5 C-4.1875 5.75 -4.1875 5.75 -7 6 C-4.83312509 3.72478134 -2.54379491 1.84205838 0 0 Z " fill="#9EA489" transform="translate(75,320)"/>
<path d="M0 0 C1.65 0 3.3 0 5 0 C5 0.66 5 1.32 5 2 C5.99 2.33 6.98 2.66 8 3 C5.36 3 2.72 3 0 3 C0 2.01 0 1.02 0 0 Z " fill="#939D40" transform="translate(312,67)"/>
<path d="M0 0 C0.33 0.66 0.66 1.32 1 2 C-0.25 4.5625 -0.25 4.5625 -2 7 C-2.99 7.33 -3.98 7.66 -5 8 C-5 5 -5 5 -2.5 2.3125 C-1.675 1.549375 -0.85 0.78625 0 0 Z " fill="#A4AF45" transform="translate(333,55)"/>
<path d="M0 0 C0.66 0.33 1.32 0.66 2 1 C0.02579865 3.52259061 -0.96745642 3.9929808 -4.1875 4.6875 C-5.5796875 4.8421875 -5.5796875 4.8421875 -7 5 C-4.63707344 2.47411298 -3.33537489 1.11179163 0 0 Z " fill="#607133" transform="translate(275,147)"/>
<path d="M0 0 C2.31 0 4.62 0 7 0 C7 0.66 7 1.32 7 2 C7.66 2.33 8.32 2.66 9 3 C2.84765625 2.4140625 2.84765625 2.4140625 1 2 C0.67 1.34 0.34 0.68 0 0 Z " fill="#6D7C32" transform="translate(278,136)"/>
</svg>
